<?xml version="1.0" encoding="UTF-8" standalone="no"?>
<!DOCTYPE svg PUBLIC "-//W3C//DTD SVG 1.1//EN"
 "http://www.w3.org/Graphics/SVG/1.1/DTD/svg11.dtd">
<!-- Generated by graphviz version 2.40.1 (20161225.0304)
 -->
<!-- Title: state transitions Pages: 1 -->
<svg width="277pt" height="364pt"
 viewBox="0.00 0.00 277.00 364.00" xmlns="http://www.w3.org/2000/svg" xmlns:xlink="http://www.w3.org/1999/xlink">
<g id="graph0" class="graph" transform="scale(1 1) rotate(0) translate(4 360)">
<title>state transitions</title>
<polygon fill="#ffffff" stroke="transparent" points="-4,4 -4,-360 273,-360 273,4 -4,4"/>
<g id="clust1" class="cluster state regular">
<title>cluster_e_siguiente</title>
<path fill="none" stroke="#000000" stroke-width="2" d="M20,-8C20,-8 249,-8 249,-8 255,-8 261,-14 261,-20 261,-20 261,-336 261,-336 261,-342 255,-348 249,-348 249,-348 20,-348 20,-348 14,-348 8,-342 8,-336 8,-336 8,-20 8,-20 8,-14 14,-8 20,-8"/>
<text text-anchor="start" x="104.322" y="-329.2" font-family="Helvetica,sans-Serif" font-size="12.00" fill="#000000">e_siguiente</text>
</g>
<!-- e_siguiente -->
<!-- IDLE -->
<g id="node2" class="node state regular">
<title>IDLE</title>
<polygon fill="#ffffff" fill-opacity="0.003922" stroke="transparent" stroke-width="2" points="112,-310 56,-310 56,-274 112,-274 112,-310"/>
<text text-anchor="start" x="70.6644" y="-288.2" font-family="Helvetica,sans-Serif" font-size="12.00" fill="#000000">IDLE</text>
<path fill="none" stroke="#000000" stroke-width="2" d="M68.3333,-275C68.3333,-275 99.6667,-275 99.6667,-275 105.3333,-275 111,-280.6667 111,-286.3333 111,-286.3333 111,-297.6667 111,-297.6667 111,-303.3333 105.3333,-309 99.6667,-309 99.6667,-309 68.3333,-309 68.3333,-309 62.6667,-309 57,-303.3333 57,-297.6667 57,-297.6667 57,-286.3333 57,-286.3333 57,-280.6667 62.6667,-275 68.3333,-275"/>
</g>
<!-- pos_all -->
<g id="node3" class="node state regular">
<title>pos_all</title>
<polygon fill="#ffffff" fill-opacity="0.003922" stroke="transparent" stroke-width="2" points="76,-216 16,-216 16,-180 76,-180 76,-216"/>
<text text-anchor="start" x="26.9956" y="-194.2" font-family="Helvetica,sans-Serif" font-size="12.00" fill="#000000">pos_all</text>
<path fill="none" stroke="#000000" stroke-width="2" d="M28.3333,-181C28.3333,-181 63.6667,-181 63.6667,-181 69.3333,-181 75,-186.6667 75,-192.3333 75,-192.3333 75,-203.6667 75,-203.6667 75,-209.3333 69.3333,-215 63.6667,-215 63.6667,-215 28.3333,-215 28.3333,-215 22.6667,-215 17,-209.3333 17,-203.6667 17,-203.6667 17,-192.3333 17,-192.3333 17,-186.6667 22.6667,-181 28.3333,-181"/>
</g>
<!-- IDLE&#45;&gt;pos_all -->
<g id="edge1" class="edge transition">
<title>IDLE&#45;&gt;pos_all</title>
<path fill="none" stroke="#000000" d="M66.2695,-273.9771C62.1035,-268.8503 58.0971,-263.0145 55.4,-257 51.1612,-247.5476 48.7991,-236.4905 47.4945,-226.5195"/>
<polygon fill="#000000" stroke="#000000" points="50.9447,-225.85 46.4552,-216.2535 43.9803,-226.5552 50.9447,-225.85"/>
<text text-anchor="start" x="55" y="-248" font-family="Helvetica,sans-Serif" font-size="10.00" fill="#000000">pos_x = columnas &#160;&#160;</text>
<text text-anchor="start" x="55" y="-236" font-family="Helvetica,sans-Serif" font-size="10.00" fill="#000000">(filas &gt;= pos_y) and (filas &lt; (pos_y + 16)) &#160;&#160;</text>
</g>
<!-- pos_fil -->
<g id="node4" class="node state regular">
<title>pos_fil</title>
<polygon fill="#ffffff" fill-opacity="0.003922" stroke="transparent" stroke-width="2" points="73,-134 17,-134 17,-98 73,-98 73,-134"/>
<text text-anchor="start" x="27.6636" y="-112.2" font-family="Helvetica,sans-Serif" font-size="12.00" fill="#000000">pos_fil</text>
<path fill="none" stroke="#000000" stroke-width="2" d="M29.3333,-99C29.3333,-99 60.6667,-99 60.6667,-99 66.3333,-99 72,-104.6667 72,-110.3333 72,-110.3333 72,-121.6667 72,-121.6667 72,-127.3333 66.3333,-133 60.6667,-133 60.6667,-133 29.3333,-133 29.3333,-133 23.6667,-133 18,-127.3333 18,-121.6667 18,-121.6667 18,-110.3333 18,-110.3333 18,-104.6667 23.6667,-99 29.3333,-99"/>
</g>
<!-- pos_all&#45;&gt;pos_fil -->
<g id="edge2" class="edge transition">
<title>pos_all&#45;&gt;pos_fil</title>
<path fill="none" stroke="#000000" d="M45.7781,-179.8015C45.6512,-169.3976 45.4893,-156.1215 45.3461,-144.3768"/>
<polygon fill="#000000" stroke="#000000" points="48.8431,-144.1041 45.2213,-134.1476 41.8436,-144.1896 48.8431,-144.1041"/>
<text text-anchor="start" x="45" y="-154" font-family="Helvetica,sans-Serif" font-size="10.00" fill="#000000">pos_x /= columnas &#160;&#160;</text>
</g>
<!-- pos_mirror -->
<g id="node5" class="node state regular">
<title>pos_mirror</title>
<polygon fill="#ffffff" fill-opacity="0.003922" stroke="transparent" stroke-width="2" points="174.5,-52 95.5,-52 95.5,-16 174.5,-16 174.5,-52"/>
<text text-anchor="start" x="106.8374" y="-30.2" font-family="Helvetica,sans-Serif" font-size="12.00" fill="#000000">pos_mirror</text>
<path fill="none" stroke="#000000" stroke-width="2" d="M107.8333,-17C107.8333,-17 162.1667,-17 162.1667,-17 167.8333,-17 173.5,-22.6667 173.5,-28.3333 173.5,-28.3333 173.5,-39.6667 173.5,-39.6667 173.5,-45.3333 167.8333,-51 162.1667,-51 162.1667,-51 107.8333,-51 107.8333,-51 102.1667,-51 96.5,-45.3333 96.5,-39.6667 96.5,-39.6667 96.5,-28.3333 96.5,-28.3333 96.5,-22.6667 102.1667,-17 107.8333,-17"/>
</g>
<!-- pos_fil&#45;&gt;pos_mirror -->
<g id="edge3" class="edge transition">
<title>pos_fil&#45;&gt;pos_mirror</title>
<path fill="none" stroke="#000000" d="M47.7825,-97.76C50.0324,-88.2517 54.0536,-76.9754 61.189,-69 67.9975,-61.39 76.8147,-55.2921 85.9723,-50.4577"/>
<polygon fill="#000000" stroke="#000000" points="87.6822,-53.5193 95.1815,-46.0352 84.6519,-47.2092 87.6822,-53.5193"/>
<text text-anchor="start" x="61" y="-72" font-family="Helvetica,sans-Serif" font-size="10.00" fill="#000000">(filas &lt; pos_y) or (filas &gt;= (pos_y + 16)) &#160;&#160;</text>
</g>
<!-- pos_mirror&#45;&gt;IDLE -->
<g id="edge4" class="edge transition">
<title>pos_mirror&#45;&gt;IDLE</title>
<path fill="none" stroke="#000000" d="M174.5765,-40.439C207.8419,-47.0077 250,-58.5729 250,-75 250,-157 250,-157 250,-157 250,-201.4644 275.462,-222.8386 247,-257 239.029,-266.5672 168.113,-279.0883 122.4832,-286.2684"/>
<polygon fill="#000000" stroke="#000000" points="121.6672,-282.853 112.3222,-287.8451 122.7407,-289.7702 121.6672,-282.853"/>
<text text-anchor="middle" x="251.3895" y="-154" font-family="Helvetica,sans-Serif" font-size="10.00" fill="#000000"> </text>
</g>
</g>
</svg>
